<svg style="display:none" xmlns="http://www.w3.org/2000/svg" xmlns:xlink="http://www.w3.org/1999/xlink" version="1.1">
	<symbol id="search" xmlns="http://www.w3.org/2000/svg" width="21" height="22" viewBox="0 0 21 22" fill="none">
			<path d="M19.25 19.75L15.3125 15.8125M17.5 10.125C17.5 14.4742 13.9742 18 9.625 18C5.27576 18 1.75 14.4742 1.75 10.125C1.75 5.77576 5.27576 2.25 9.625 2.25C13.9742 2.25 17.5 5.77576 17.5 10.125Z" stroke="white" stroke-width="2" stroke-linecap="round"/>
	</symbol>
	<symbol id="search-drawer" xmlns="http://www.w3.org/2000/svg" width="21" height="22" viewBox="0 0 21 22" fill="none">
	<path xmlns="http://www.w3.org/2000/svg" d="M19.25 19.75L15.3125 15.8125M17.5 10.125C17.5 14.4742 13.9742 18 9.625 18C5.27576 18 1.75 14.4742 1.75 10.125C1.75 5.77576 5.27576 2.25 9.625 2.25C13.9742 2.25 17.5 5.77576 17.5 10.125Z" stroke="#888888" stroke-width="2" stroke-linecap="round"/>
	</symbol>
	<symbol id="shopping_bag" xmlns="http://www.w3.org/2000/svg" width="20" height="18" viewBox="0 0 20 18" fill="none"><path d="M1.24927 1H1.85558C2.87621 1 3.7331 1.7685 3.84379 2.78311L4.65475 10.2169C4.76543 11.2315 5.62233 12 6.64295 12H15.2953C16.2095 12 17.0074 11.3801 17.2333 10.4942L18.6353 3.18306C18.6944 2.87477 18.4582 2.58889 18.1443 2.58889H3.81298M4.87402 15.6249H5.62402M4.87402 16.3749H5.62402M15.874 15.6249H16.624M15.874 16.3749H16.624M6.24927 16C6.24927 16.5523 5.80155 17 5.24927 17C4.69698 17 4.24927 16.5523 4.24927 16C4.24927 15.4477 4.69698 15 5.24927 15C5.80155 15 6.24927 15.4477 6.24927 16ZM17.2493 16C17.2493 16.5523 16.8016 17 16.2493 17C15.697 17 15.2493 16.5523 15.2493 16C15.2493 15.4477 15.697 15 16.2493 15C16.8016 15 17.2493 15.4477 17.2493 16Z" stroke="white" stroke-width="2" stroke-linecap="round"/>
	</symbol>
	<symbol id="menu" xmlns="http://www.w3.org/2000/svg" width="22" height="18" viewBox="0 0 22 18" fill="none"><path fill-rule="evenodd" clip-rule="evenodd" d="M0.750244 1.12442C0.750244 0.503102 1.25392 -0.000579834 1.87524 -0.000579834H20.6261C21.2474 -0.000579834 21.7511 0.503102 21.7511 1.12442C21.7511 1.74575 21.2474 2.24942 20.6261 2.24942H1.87524C1.25392 2.24942 0.750244 1.74575 0.750244 1.12442ZM0.750244 8.99964C0.750244 8.37833 1.25392 7.87464 1.87524 7.87464H20.6261C21.2474 7.87464 21.7511 8.37833 21.7511 8.99964C21.7511 9.62097 21.2474 10.1246 20.6261 10.1246H1.87524C1.25392 10.1246 0.750244 9.62097 0.750244 8.99964ZM1.87524 15.7506C1.25392 15.7506 0.750244 16.2543 0.750244 16.8756C0.750244 17.4969 1.25392 18.0006 1.87524 18.0006H20.6261C21.2474 18.0006 21.7511 17.4969 21.7511 16.8756C21.7511 16.2543 21.2474 15.7506 20.6261 15.7506H1.87524Z" fill="white"/></symbol>
	<symbol id="account_circle" xmlns="http://www.w3.org/2000/svg" width="21" height="20" viewBox="0 0 21 20" fill="none"><path d="M10.4993 12.1875C13.5196 12.1875 15.968 9.73906 15.968 6.71875C15.968 3.69844 13.5196 1.25 10.4993 1.25C7.47896 1.25 5.03052 3.69844 5.03052 6.71875C5.03052 9.73906 7.47896 12.1875 10.4993 12.1875ZM10.4993 12.1875C5.66678 12.1875 1.74927 15.1256 1.74927 18.75M10.4993 12.1875C15.3318 12.1875 19.2493 15.1256 19.2493 18.75" stroke="white" stroke-width="2" stroke-linecap="round"/>
	</symbol>
	<symbol id="wishlist-icon" xmlns="http://www.w3.org/2000/svg" width="25" height="24" viewBox="0 0 25 24" fill="none">
	<path fill-rule="evenodd" clip-rule="evenodd" d="M12.4932 5.15567C10.4938 2.79653 7.15975 2.16192 4.65469 4.32219C2.14964 6.48246 1.79697 10.0943 3.7642 12.6493C5.39982 14.7736 10.3498 19.2538 11.9721 20.7039C12.1536 20.8661 12.2444 20.9473 12.3502 20.9791C12.4426 21.007 12.5437 21.007 12.6361 20.9791C12.7419 20.9473 12.8327 20.8661 13.0142 20.7039C14.6365 19.2538 19.5865 14.7736 21.2221 12.6493C23.1893 10.0943 22.8797 6.45974 20.3316 4.32219C17.7835 2.18465 14.4925 2.79653 12.4932 5.15567Z" stroke="white" stroke-width="2" stroke-linecap="round" stroke-linejoin="round"/>
	</symbol>
	<path xmlns="http://www.w3.org/2000/svg" id="Icon" fill-rule="evenodd" clip-rule="evenodd" d="M12.4932 5.15567C10.4938 2.79653 7.15975 2.16192 4.65469 4.32219C2.14964 6.48246 1.79697 10.0943 3.7642 12.6493C5.39982 14.7736 10.3498 19.2538 11.9721 20.7039C12.1536 20.8661 12.2444 20.9473 12.3502 20.9791C12.4426 21.007 12.5437 21.007 12.6361 20.9791C12.7419 20.9473 12.8327 20.8661 13.0142 20.7039C14.6365 19.2538 19.5865 14.7736 21.2221 12.6493C23.1893 10.0943 22.8797 6.45974 20.3316 4.32219C17.7835 2.18465 14.4925 2.79653 12.4932 5.15567Z" stroke="white" stroke-width="2" stroke-linecap="round" stroke-linejoin="round"/>
	</symbol>
	<symbol id="close-white" xmlns="http://www.w3.org/2000/svg" width="16" height="16" viewBox="0 0 16 16" fill="none" >
		<path xmlns="http://www.w3.org/2000/svg" id="Vector" d="M14.5 1.25146L1.43184 14.7483" stroke="white" stroke-width="1.31" stroke-linecap="round" stroke-linejoin="round"/>
		<path xmlns="http://www.w3.org/2000/svg" id="Vector_2" d="M1.43185 1.25166L14.5 14.7485" stroke="white" stroke-width="1.31" stroke-linecap="round" stroke-linejoin="round"/>
	</symbol>
	<symbol id="close" xmlns="http://www.w3.org/2000/svg" viewBox="0 -960 960 960" fill="currentColor"><path d="m256-200-56-56 224-224-224-224 56-56 224 224 224-224 56 56-224 224 224 224-56 56-224-224-224 224Z"/></symbol>
	<symbol id="chevron-right" xmlns="http://www.w3.org/2000/svg" viewBox="0 -960 960 960" fill="currentColor"><path d="M504-480 320-664l56-56 240 240-240 240-56-56 184-184Z"/></symbol>
	<symbol id="favorite" xmlns="http://www.w3.org/2000/svg" viewBox="0 -960 960 960" fill="currentColor"><path d="m480-120-58-52q-101-91-167-157T150-447.5Q111-500 95.5-544T80-634q0-94 63-157t157-63q52 0 99 22t81 62q34-40 81-62t99-22q94 0 157 63t63 157q0 46-15.5 90T810-447.5Q771-395 705-329T538-172l-58 52Zm0-108q96-86 158-147.5t98-107q36-45.5 50-81t14-70.5q0-60-40-100t-100-40q-47 0-87 26.5T518-680h-76q-15-41-55-67.5T300-774q-60 0-100 40t-40 100q0 35 14 70.5t50 81q36 45.5 98 107T480-228Zm0-273Z"/></symbol>
	<symbol id="home_pin" xmlns="http://www.w3.org/2000/svg" viewBox="0 -960 960 960" fill="currentColor"><path d="M360-440h80v-110h80v110h80v-190l-120-80-120 80v190Zm120 254q122-112 181-203.5T720-552q0-109-69.5-178.5T480-800q-101 0-170.5 69.5T240-552q0 71 59 162.5T480-186Zm0 106Q319-217 239.5-334.5T160-552q0-150 96.5-239T480-880q127 0 223.5 89T800-552q0 100-79.5 217.5T480-80Zm0-480Z"/></symbol>
	<symbol id="call" xmlns="http://www.w3.org/2000/svg" viewBox="0 -960 960 960" fill="currentColor"><path d="M798-120q-125 0-247-54.5T329-329Q229-429 174.5-551T120-798q0-18 12-30t30-12h162q14 0 25 9.5t13 22.5l26 140q2 16-1 27t-11 19l-97 98q20 37 47.5 71.5T387-386q31 31 65 57.5t72 48.5l94-94q9-9 23.5-13.5T670-390l138 28q14 4 23 14.5t9 23.5v162q0 18-12 30t-30 12ZM241-600l66-66-17-94h-89q5 41 14 81t26 79Zm358 358q39 17 79.5 27t81.5 13v-88l-94-19-67 67ZM241-600Zm358 358Z"/></symbol>
	<symbol id="local_shipping" xmlns="http://www.w3.org/2000/svg" viewBox="0 -960 960 960" fill="currentColor"><path d="M240-160q-50 0-85-35t-35-85H40v-440q0-33 23.5-56.5T120-800h560v160h120l120 160v200h-80q0 50-35 85t-85 35q-50 0-85-35t-35-85H360q0 50-35 85t-85 35Zm0-80q17 0 28.5-11.5T280-280q0-17-11.5-28.5T240-320q-17 0-28.5 11.5T200-280q0 17 11.5 28.5T240-240ZM120-360h32q17-18 39-29t49-11q27 0 49 11t39 29h272v-360H120v360Zm600 120q17 0 28.5-11.5T760-280q0-17-11.5-28.5T720-320q-17 0-28.5 11.5T680-280q0 17 11.5 28.5T720-240Zm-40-200h170l-90-120h-80v120ZM360-540Z"/></symbol>
	<symbol id="pan_zoom" xmlns="http://www.w3.org/2000/svg" viewBox="0 -960 960 960" fill="currentColor"><path d="M120-120v-240h80v104l124-124 56 56-124 124h104v80H120Zm516-460-56-56 124-124H600v-80h240v240h-80v-104L636-580Z"/></symbol>
	<symbol id="share" xmlns="http://www.w3.org/2000/svg" viewBox="0 -960 960 960" fill="currentColor"><path d="M720-80q-50 0-85-35t-35-85q0-7 1-14.5t3-13.5L322-392q-17 15-38 23.5t-44 8.5q-50 0-85-35t-35-85q0-50 35-85t85-35q23 0 44 8.5t38 23.5l282-164q-2-6-3-13.5t-1-14.5q0-50 35-85t85-35q50 0 85 35t35 85q0 50-35 85t-85 35q-23 0-44-8.5T638-672L356-508q2 6 3 13.5t1 14.5q0 7-1 14.5t-3 13.5l282 164q17-15 38-23.5t44-8.5q50 0 85 35t35 85q0 50-35 85t-85 35Zm0-640q17 0 28.5-11.5T760-760q0-17-11.5-28.5T720-800q-17 0-28.5 11.5T680-760q0 17 11.5 28.5T720-720ZM240-440q17 0 28.5-11.5T280-480q0-17-11.5-28.5T240-520q-17 0-28.5 11.5T200-480q0 17 11.5 28.5T240-440Zm480 280q17 0 28.5-11.5T760-200q0-17-11.5-28.5T720-240q-17 0-28.5 11.5T680-200q0 17 11.5 28.5T720-160Zm0-600ZM240-480Zm480 280Z"/></symbol>
	<symbol id="sell" xmlns="http://www.w3.org/2000/svg" viewBox="0 -960 960 960" fill="currentColor"><path d="M856-390 570-104q-12 12-27 18t-30 6q-15 0-30-6t-27-18L103-457q-11-11-17-25.5T80-513v-287q0-33 23.5-56.5T160-880h287q16 0 31 6.5t26 17.5l352 353q12 12 17.5 27t5.5 30q0 15-5.5 29.5T856-390ZM513-160l286-286-353-354H160v286l353 354ZM260-640q25 0 42.5-17.5T320-700q0-25-17.5-42.5T260-760q-25 0-42.5 17.5T200-700q0 25 17.5 42.5T260-640Zm220 160Z"/></symbol>
	<symbol id="check-circle" xmlns="http://www.w3.org/2000/svg" viewBox="0 -960 960 960" fill="currentColor"><path d="m424-296 282-282-56-56-226 226-114-114-56 56 170 170Zm56 216q-83 0-156-31.5T197-197q-54-54-85.5-127T80-480q0-83 31.5-156T197-763q54-54 127-85.5T480-880q83 0 156 31.5T763-763q54 54 85.5 127T880-480q0 83-31.5 156T763-197q-54 54-127 85.5T480-80Zm0-80q134 0 227-93t93-227q0-134-93-227t-227-93q-134 0-227 93t-93 227q0 134 93 227t227 93Zm0-320Z"/></symbol>
	<symbol id="error" xmlns="http://www.w3.org/2000/svg" viewBox="0 -960 960 960" fill="currentColor"><path d="M480-280q17 0 28.5-11.5T520-320q0-17-11.5-28.5T480-360q-17 0-28.5 11.5T440-320q0 17 11.5 28.5T480-280Zm-40-160h80v-240h-80v240Zm40 360q-83 0-156-31.5T197-197q-54-54-85.5-127T80-480q0-83 31.5-156T197-763q54-54 127-85.5T480-880q83 0 156 31.5T763-763q54 54 85.5 127T880-480q0 83-31.5 156T763-197q-54 54-127 85.5T480-80Zm0-80q134 0 227-93t93-227q0-134-93-227t-227-93q-134 0-227 93t-93 227q0 134 93 227t227 93Zm0-320Z"/></symbol>
	<symbol id="trash" xmlns="http://www.w3.org/2000/svg" viewBox="0 -960 960 960" fill="currentColor"><path d="M280-120q-33 0-56.5-23.5T200-200v-520h-40v-80h200v-40h240v40h200v80h-40v520q0 33-23.5 56.5T680-120H280Zm400-600H280v520h400v-520ZM360-280h80v-360h-80v360Zm160 0h80v-360h-80v360ZM280-720v520-520Z"/></symbol>
</svg>
